<svg xmlns="http://www.w3.org/2000/svg" version="1.1" xmlns:xlink="http://www.w3.org/1999/xlink" xmlns:svgjs="http://svgjs.dev/svgjs" width="512" height="512"><svg viewBox="0 0 512 512" xmlns="http://www.w3.org/2000/svg"><path d="m0 0h512v512h-512z" fill="#41a5dd"></path><path d="m112.2 340.1h-10.1v-156.6h-.5c-1 .5-7.7 5.3-20.7 13-12.5 8.2-19.3 13-20.7 14v-10.6c1.9-1.4 8.7-5.8 21.2-14s19.8-12.5 21.2-13.5h9.6v167.6zm60.2-96.4v25.5c0 19.3 4.3 34.2 13 44.3 8.7 10.6 20.7 15.9 36.6 15.9s24.6-3.9 32.3-11.1c7.7-6.7 12-16.9 12-27h15.4c0 10.6-3.4 20.7-9.6 28.9-7.2 9.6-17.3 16.9-28.9 20.2-7.2 1.9-14.5 3.4-22.2 3.4-20.7 0-36.6-6.7-47.7-19.8-11.1-13-16.9-31.3-16.9-54.9v-25.5c0-23.6 5.8-41.9 16.9-55.4 11.6-13.5 27.5-20.2 47.7-20.2s14.5 1 21.7 3.4c6.3 1.9 12 4.8 16.9 8.7 4.3 3.4 8.7 7.7 12 12.5 3.4 4.3 5.8 9.6 7.2 14.5 1.4 4.8 2.4 10.1 2.4 15.4s-15.4 0-15.4 0c0-4.8-1-9.6-2.9-14-1.9-4.8-4.8-9.2-8.2-13-3.9-4.3-8.7-7.2-14-9.6-6.3-2.4-12.5-3.9-19.3-3.9-15.4 0-27.5 5.3-35.6 16.4-8.7 10.6-13 25.5-13 44.8l-.5.5zm161.9 96.4h-35.6l55.4-168.6h42.4l55.4 168.6h-38.1l-12.5-41.9h-54.9l-12.5 41.9h.5zm41-134.9h-1.4l-19.8 67h40.9l-19.3-67h-.5z" fill="#fff"></path></svg><style>@media (prefers-color-scheme: light) { :root { filter: none; } }
@media (prefers-color-scheme: dark) { :root { filter: none; } }
</style></svg>